<svg width="24" height="25" viewBox="0 0 24 25" fill="none" xmlns="http://www.w3.org/2000/svg">
<path d="M16.9687 20.6093C17.4865 20.6093 17.9062 20.1828 17.9062 19.6566C17.9062 19.1304 17.4865 18.7039 16.9687 18.7039C16.451 18.7039 16.0312 19.1304 16.0312 19.6566C16.0312 20.1828 16.451 20.6093 16.9687 20.6093Z" fill="white"/>
<path d="M14.8122 8.31877C15.33 8.31877 15.7497 7.89222 15.7497 7.36605C15.7497 6.83988 15.33 6.41333 14.8122 6.41333C14.2945 6.41333 13.8748 6.83988 13.8748 7.36605C13.8748 7.89222 14.2945 8.31877 14.8122 8.31877Z" fill="white"/>
<path d="M23.0625 14.8928H24V9.17632H21.6094C20.5755 9.17632 19.7344 8.32152 19.7344 7.27083C19.7344 6.55787 20.1218 5.90997 20.7455 5.57987L21.544 5.15724L19.1567 0L0.0219644 9.17207L0.0239356 9.17632H0V14.8928H0.937525C1.9714 14.8928 2.81253 15.7476 2.81253 16.7983C2.81253 17.849 1.9714 18.7038 0.937525 18.7038H0V24.4202H24V18.7037H23.0625C22.0286 18.7037 21.1875 17.8489 21.1875 16.7982C21.1875 15.7476 22.0286 14.8928 23.0625 14.8928ZM12.7576 5.17422C12.9853 5.63358 13.5323 5.82827 13.993 5.60801C14.4544 5.38747 14.6556 4.83396 14.4512 4.36244L18.259 2.53717L19.1275 4.41328C18.3297 5.12686 17.8593 6.15923 17.8593 7.27088C17.8593 7.96475 18.0437 8.61532 18.3639 9.17637H4.40838L12.7576 5.17422ZM22.125 20.4886V22.5147H17.9062C17.9062 21.9885 17.4865 21.562 16.9688 21.562C16.451 21.562 16.0313 21.9885 16.0313 22.5147H1.875V20.4886C3.49061 20.0645 4.68748 18.5708 4.68748 16.7982C4.68748 15.0257 3.49056 13.5319 1.875 13.1078V11.0818H16.0312C16.0312 11.6079 16.4509 12.0345 16.9687 12.0345C17.4865 12.0345 17.9062 11.6079 17.9062 11.0818H22.1249V13.1078C20.5093 13.5319 19.3124 15.0257 19.3124 16.7982C19.3125 18.5708 20.5093 20.0645 22.125 20.4886Z" fill="white"/>
<path d="M16.9687 14.8929C17.4865 14.8929 17.9062 14.4663 17.9062 13.9401C17.9062 13.414 17.4865 12.9874 16.9687 12.9874C16.451 12.9874 16.0312 13.414 16.0312 13.9401C16.0312 14.4663 16.451 14.8929 16.9687 14.8929Z" fill="white"/>
<path d="M16.9687 17.751C17.4865 17.751 17.9062 17.3245 17.9062 16.7983C17.9062 16.2721 17.4865 15.8456 16.9687 15.8456C16.451 15.8456 16.0312 16.2721 16.0312 16.7983C16.0312 17.3245 16.451 17.751 16.9687 17.751Z" fill="white"/>
</svg>
